<svg width="23" height="19" viewBox="0 0 23 19" fill="none" xmlns="http://www.w3.org/2000/svg">
<path d="M22.9453 9.46875C22.9453 8.98828 22.7344 8.48438 22.4062 8.16797L14.8008 0.5625C14.4258 0.1875 13.9805 0 13.5586 0C12.5156 0 11.8242 0.714844 11.8242 1.66406C11.8242 2.20312 12.0469 2.61328 12.375 2.92969L15.0469 5.60156L17.4609 7.83984L14.9414 7.69922H1.83984C0.738281 7.69922 0 8.41406 0 9.46875C0 10.5234 0.738281 11.2266 1.83984 11.2266H14.9414L17.4727 11.0977L15.0469 13.3242L12.375 15.9844C12.0586 16.3125 11.8242 16.7227 11.8242 17.25C11.8242 18.1992 12.5156 18.9258 13.5586 18.9258C13.9805 18.9258 14.4141 18.7383 14.7891 18.375L22.4062 10.7578C22.7344 10.4414 22.9453 9.9375 22.9453 9.46875Z" fill="#EEEEEE"/>
</svg>
