<svg width="308" height="100" viewBox="0 0 308 100" fill="none" xmlns="http://www.w3.org/2000/svg">
<path opacity="0.5" d="M96.1416 48.0718C96.1415 56.5305 93.9098 64.8394 89.6719 72.1599C85.4339 79.4803 79.3396 85.5531 72.0043 89.7651C64.6689 93.9772 56.3521 96.1795 47.8935 96.1496C39.4349 96.1198 31.1338 93.8589 23.8284 89.5952L25.7911 91.3739L2.20037 99.47L10.1662 77.635C5.45803 71.5986 2.25964 64.5251 0.837163 57.003C-0.585311 49.481 -0.19073 41.728 1.98807 34.3893C4.16687 27.0505 8.06688 20.3383 13.3635 14.8111C18.6602 9.28391 25.2003 5.10166 32.4396 2.61237C39.679 0.12309 47.4081 -0.601228 54.9839 0.499695C62.5597 1.60062 69.763 4.49494 75.9943 8.94181C82.2257 13.3887 87.3049 19.2595 90.8092 26.0656C94.3136 32.8718 96.1417 40.4165 96.1416 48.0718Z" fill="#EEEEEE" fill-opacity="0.5"/>
<path d="M39.898 64.2641C39.898 64.2641 26.6804 64.5324 19.9643 75.5649C19.9643 75.5649 16.4606 91.2435 16.8976 94.5862L25.5611 90.6608C25.8217 91.3738 38.5486 96.4032 49.6425 95.9049C70.1051 94.9926 79.3743 84.627 79.3743 84.627C79.3743 84.627 77.2046 69.9145 65.0757 66.5718C52.9468 63.229 39.898 64.2641 39.898 64.2641Z" fill="#2673D1"/>
<path d="M39.806 63.6047C39.806 63.6047 36.9463 64.0417 37.0383 66.1118C37.1303 68.1818 37.4753 74.4149 40.6877 72.9199C43.9001 71.4249 46.6218 66.9015 46.6218 66.9015L39.806 63.6047Z" fill="white"/>
<path d="M54.6567 63.6047C54.6567 63.6047 57.5165 64.0417 57.4321 66.1118C57.3478 68.1818 56.9875 74.4149 53.7827 72.9199C50.578 71.4249 47.8486 66.9015 47.8486 66.9015L54.6567 63.6047Z" fill="white"/>
<path d="M28.9958 33.7656C28.9958 33.7656 25.745 54.3356 33.9178 56.9653C34.8092 57.4953 35.7998 57.8367 36.8284 57.9686C37.857 58.1005 38.9017 58.0199 39.8979 57.732V64.2334C39.8979 64.2334 48.1551 70.4742 54.9249 63.7964V47.0598C54.9249 47.0598 54.1582 36.8247 52.1111 37.9134C51.6435 38.174 47.5111 37.7447 46.8364 30.2466C46.8364 30.2466 37.3449 26.0298 32.9518 28.9279C28.5588 31.8259 28.9958 33.7656 28.9958 33.7656Z" fill="#F7AF87"/>
<path d="M26.9947 33.0756C27.4916 33.9779 28.1652 34.7708 28.9753 35.4071C29.7854 36.0433 30.7154 36.5098 31.7098 36.7786C32.712 37.0176 33.7642 36.9335 34.7158 36.5382C35.6673 36.143 36.4695 35.457 37.0075 34.5783C37.8286 35.7308 39.0448 36.5412 40.4246 36.855C41.8045 37.1689 43.2515 36.9643 44.4903 36.2803C45.579 37.8136 47.6567 38.2353 49.5197 38.1203C51.9082 38.0129 54.1826 37.0684 55.9445 35.4523C56.8008 34.6338 57.4546 33.627 57.8538 32.5117C58.2531 31.3964 58.3869 30.2035 58.2446 29.0275C57.8382 26.2751 55.7605 24.0594 53.5371 22.3957C50.0225 19.7175 45.8565 18.0262 41.4696 17.4966C37.5059 17.052 31.1731 17.4966 28.1371 20.4867C25.101 23.4767 24.825 29.4262 26.9947 33.0756Z" fill="#DD6034"/>
<path d="M39.8979 57.7933C39.8979 57.7933 44.9044 56.4746 46.7521 54.1899C46.7521 54.1899 44.199 64.2104 39.8979 64.2948V57.7933Z" fill="url(#paint0_linear_13_130)"/>
<path d="M50.0564 35.2376L50.4167 42.3294L51.8427 40.382C52.0574 40.083 52.3488 39.761 52.7091 39.8223C53.0694 39.8837 53.1538 40.1367 53.2764 40.382C53.8324 41.5248 54.0303 42.8089 53.8443 44.0661C53.6582 45.3233 53.0969 46.495 52.2338 47.4278C51.9299 47.6898 51.6821 48.0106 51.5054 48.3708C51.4198 48.6827 51.3989 49.0089 51.4441 49.3292C51.5897 51.3992 54.6411 53.8296 55.1625 52.3269C55.6838 50.8242 55.7835 49.1912 56.2742 47.6731C57.0505 45.7203 58.1408 43.9075 59.5019 42.3064C60.8763 40.6997 61.9186 38.8365 62.5686 36.8246C63.0746 34.7852 62.6759 32.3855 61.0352 31.0439C60.7271 30.8469 60.4655 30.5853 60.2686 30.2772C60.175 30.0322 60.1257 29.7727 60.1229 29.5105C59.941 26.9635 58.8879 24.5567 57.1405 22.6947C56.2615 21.7751 55.1975 21.0522 54.0187 20.5738C52.8399 20.0955 51.573 19.8724 50.3017 19.9193C49.8711 19.922 49.4466 20.0215 49.0597 20.2107C48.7074 20.4545 48.41 20.7695 48.1868 21.1352C47.9637 21.501 47.8196 21.9095 47.764 22.3344C46.9437 26.1678 48.7224 30.0012 49.3894 33.8959" fill="#DD6034"/>
<path opacity="0.5" d="M202.48 48.0718C202.478 56.5306 200.246 64.8394 196.007 72.1595C191.768 79.4797 185.673 85.5521 178.337 89.7639C171.001 93.9758 162.684 96.178 154.225 96.1484C145.767 96.1187 137.465 93.8582 130.159 89.5951L132.122 91.3738L108.508 99.4699L116.466 77.6349C111.76 71.5981 108.564 64.5247 107.143 57.0033C105.722 49.4819 106.118 41.73 108.298 34.3924C110.477 27.0549 114.378 20.3439 119.674 14.8179C124.971 9.29184 131.51 5.11049 138.749 2.62171C145.987 0.132932 153.715 -0.591306 161.29 0.509249C168.865 1.6098 176.068 4.50333 182.299 8.9491C188.53 13.3949 193.609 19.2643 197.114 26.0691C200.619 32.8739 202.448 40.4173 202.449 48.0718H202.48Z" fill="#2673D1"/>
<path d="M146.014 64.2641C146.014 64.2641 132.797 64.5325 126.081 75.565C126.081 75.565 121.481 91.3739 121.941 94.7319L132.153 91.3892C137.243 94.2336 144.887 96.411 155.759 95.9203C176.26 95.008 185.491 84.6195 185.491 84.6195C185.491 84.6195 183.321 69.9069 171.192 66.5642C159.063 63.2214 146.014 64.2641 146.014 64.2641Z" fill="#2673D1"/>
<path d="M174.749 46.6765C176.413 38.1817 177.908 25.0715 172.058 22.3881L168.225 22.2118C168.225 22.2118 165.411 15.695 154.141 16.753C142.871 17.811 131.508 27.3102 136.645 42.7434C139.313 50.7476 134.575 62.3934 134.575 62.3934L151.151 62.3321L176.743 61.5194C174.452 56.9292 173.751 51.7083 174.749 46.6765Z" fill="#404040"/>
<path d="M172.235 33.6046C172.235 33.6046 175.485 54.1746 167.312 56.812C166.421 57.3427 165.431 57.6847 164.402 57.8166C163.373 57.9485 162.328 57.8675 161.332 57.5786V64.0878C161.332 64.0878 153.075 70.3285 146.305 63.6431V46.8528C146.305 46.8528 147.072 36.6253 149.119 37.714C149.587 37.967 153.719 37.5376 154.394 30.0472C154.394 30.0472 163.885 25.8228 168.278 28.7285C172.672 31.6342 172.235 33.6046 172.235 33.6046Z" fill="#F7AF87"/>
<path d="M161.332 57.6017C161.332 57.6017 156.326 56.283 154.478 53.9983C154.478 53.9983 157.024 64.0188 161.332 64.1108V57.6017Z" fill="url(#paint1_linear_13_130)"/>
<path d="M165.434 27.6398C162.896 27.6398 160.136 28.0001 158.35 29.7941C156.142 32.0099 156.195 35.5366 155.229 38.5113C154.516 40.7777 153.088 42.7521 151.158 44.1387C150.192 44.8198 149.1 45.3015 147.946 45.5556C146.791 45.8097 145.597 45.831 144.435 45.6184C144.196 45.5933 143.965 45.5198 143.755 45.4025C143.545 45.2852 143.362 45.1265 143.216 44.9361C143.054 44.592 142.998 44.2079 143.055 43.832C143.277 39.6153 143.775 35.2529 145.953 31.6418C147.168 29.6451 148.845 27.97 150.844 26.7581C152.005 26.0168 153.313 25.5355 154.677 25.3474C157.361 25.0407 159.968 26.2368 162.398 27.4098" fill="#404040"/>
<path d="M145.93 63.6047C145.93 63.6047 143.07 64.0417 143.162 66.1118C143.254 68.1818 143.599 74.4149 146.811 72.9199C150.024 71.4249 152.746 66.9015 152.746 66.9015L145.93 63.6047Z" fill="white"/>
<path d="M160.78 63.6047C160.78 63.6047 163.64 64.0417 163.555 66.1118C163.471 68.1818 163.111 74.4149 159.906 72.9199C156.701 71.4249 153.972 66.9015 153.972 66.9015L160.78 63.6047Z" fill="white"/>
<path d="M153.198 76.7149C154.074 76.7149 154.785 76.0044 154.785 75.1279C154.785 74.2514 154.074 73.5409 153.198 73.5409C152.321 73.5409 151.611 74.2514 151.611 75.1279C151.611 76.0044 152.321 76.7149 153.198 76.7149Z" fill="white"/>
<path d="M153.198 82.3271C154.074 82.3271 154.785 81.6166 154.785 80.7401C154.785 79.8636 154.074 79.1531 153.198 79.1531C152.321 79.1531 151.611 79.8636 151.611 80.7401C151.611 81.6166 152.321 82.3271 153.198 82.3271Z" fill="white"/>
<path d="M153.198 87.9391C154.074 87.9391 154.785 87.2285 154.785 86.352C154.785 85.4756 154.074 84.765 153.198 84.765C152.321 84.765 151.611 85.4756 151.611 86.352C151.611 87.2285 152.321 87.9391 153.198 87.9391Z" fill="white"/>
<path opacity="0.5" d="M307.929 48.0718C307.929 56.5304 305.697 64.8394 301.459 72.1598C297.221 79.4802 291.127 85.553 283.792 89.7651C276.456 93.9771 268.14 96.1794 259.681 96.1496C251.222 96.1197 242.921 93.8588 235.616 89.5951L237.571 91.3738L213.988 99.4699L221.977 77.6349C217.271 71.5981 214.074 64.5247 212.653 57.0033C211.233 49.4819 211.629 41.73 213.808 34.3924C215.988 27.0549 219.888 20.3439 225.184 14.8179C230.481 9.29184 237.02 5.11049 244.259 2.62171C251.497 0.132932 259.226 -0.591306 266.801 0.509249C274.375 1.6098 281.578 4.50333 287.809 8.9491C294.04 13.3949 299.119 19.2643 302.624 26.0691C306.129 32.8739 307.958 40.4173 307.96 48.0718H307.929Z" fill="#EEEEEE"/>
<path d="M251.471 64.2641C251.471 64.2641 238.254 64.5325 231.499 75.565C231.499 75.565 226.899 91.3739 227.359 94.7319L237.571 91.3892C242.662 94.2336 250.306 96.411 261.185 95.9203C281.678 95.008 290.909 84.6195 290.909 84.6195C290.909 84.6195 288.739 69.9069 276.61 66.5642C264.482 63.2214 251.471 64.2641 251.471 64.2641Z" fill="#2673D1"/>
<path d="M252.468 53.0092C252.468 53.0092 252.299 62.3551 251.471 64.2641C250.643 66.1731 257.965 72.0076 265.463 66.6791L265.961 64.3408C265.961 64.3408 264.635 57.847 265.463 52.1812C266.291 46.5155 252.468 53.0092 252.468 53.0092Z" fill="#F7AF87"/>
<path d="M252.353 54.2359C252.353 54.2359 253.664 60.515 259.214 60.9521C264.765 61.3891 265.217 59.5107 265.217 59.5107L265.355 51.4606L252.353 54.2359Z" fill="url(#paint2_linear_13_130)"/>
<path d="M244.026 34.0262C243.707 33.7952 243.341 33.637 242.955 33.5628C242.568 33.4886 242.169 33.5003 241.788 33.5969C241.492 33.7205 241.229 33.9123 241.021 34.1566C239.856 35.3909 239.917 37.3383 240.254 39.002C240.462 39.9354 240.744 40.8506 241.098 41.739C241.24 42.1516 241.45 42.5377 241.719 42.8814C242.539 43.8704 244.019 44.0007 245.284 43.8551C245.664 43.8551 246.039 43.7648 246.377 43.5915C246.716 43.4182 247.009 43.1669 247.231 42.8584C247.347 42.5939 247.414 42.3109 247.43 42.0227C247.752 38.6723 246.963 35.8049 244.026 34.0262Z" fill="#F7AF87"/>
<path d="M275.713 35.3909C276.656 34.7316 277.883 34.2256 278.941 34.6779C279.355 34.887 279.707 35.2007 279.963 35.5881C280.218 35.9754 280.368 36.4229 280.397 36.886C280.45 37.8152 280.287 38.744 279.922 39.6C279.561 40.7005 278.991 41.721 278.243 42.6054C277.48 43.4809 276.409 44.0298 275.253 44.1388C274.676 44.1821 274.098 44.0611 273.586 43.7897C273.075 43.5184 272.65 43.1078 272.363 42.6054C272.081 41.9314 271.95 41.2039 271.979 40.474C271.926 39.9096 271.992 39.3404 272.171 38.8027C272.623 37.691 274.747 36.058 275.713 35.3909Z" fill="#F7AF87"/>
<path d="M274.74 38.542C273.544 48.5625 267.97 56.8119 259.628 56.8119C251.287 56.8119 244.525 48.6315 244.525 38.542C244.525 28.4525 249.892 17.075 258.233 17.075C266.575 17.075 277.178 18.0486 274.74 38.542Z" fill="#F7AF87"/>
<path d="M244.532 33.9342L244.67 36.1729C244.67 36.5256 244.785 36.9396 245.13 37.0393C245.475 37.1389 245.813 36.5179 245.82 36.0579C245.82 34.2179 245.245 32.1402 246.388 30.6912C246.674 30.4083 246.93 30.0976 247.154 29.7635C247.63 28.8051 246.909 27.5861 247.338 26.6048C247.591 26.0451 248.151 25.7001 248.557 25.2324C249.056 24.5016 249.436 23.697 249.684 22.848C249.777 22.5625 249.956 22.3131 250.198 22.135C250.429 22.039 250.671 21.9745 250.919 21.9434C251.854 21.7057 252.406 20.7473 253.219 20.249C253.954 19.8829 254.777 19.729 255.595 19.8043C258.792 19.904 262.12 21.0387 265.079 19.8043C266.295 21.5326 268.144 22.7117 270.224 23.0857C270.397 23.0959 270.564 23.1544 270.707 23.2544C270.843 23.4192 270.934 23.6178 270.967 23.8294C271.273 24.5034 271.705 25.1125 272.24 25.6234C274.088 27.9235 274.049 31.1052 273.911 34.0569L273.697 38.7413L275.33 35.9966C275.498 35.6762 275.718 35.386 275.981 35.1379C276.28 34.8849 276.679 34.7316 276.863 34.3712C276.941 34.1916 276.985 33.9994 276.993 33.8039L277.392 29.7865C277.509 29.0627 277.483 28.3229 277.315 27.6091C277.177 27.1644 276.932 26.7581 276.794 26.3134C276.64 25.4968 276.617 24.661 276.725 23.8371C276.778 23.4244 276.741 23.0051 276.617 22.6081C276.492 22.2111 276.283 21.8457 276.004 21.537C276.541 19.743 277.047 17.8416 276.625 16.0169C276.204 14.1922 274.509 12.5285 272.662 12.8045C272.382 12.8789 272.091 12.8997 271.803 12.8659C271.561 12.7827 271.339 12.6495 271.151 12.4749C269.862 11.4596 268.29 10.8702 266.651 10.7882C264.721 10.6655 262.785 10.6655 260.855 10.7882C256.515 11.1485 251.961 10.2515 247.906 11.8155C246.929 12.1756 246.029 12.7166 245.253 13.4102C244.452 14.2276 243.764 15.148 243.206 16.1473C242.895 16.5917 242.664 17.0873 242.524 17.6116C242.458 18.1873 242.458 18.7686 242.524 19.3443C242.524 21.2687 241.542 23.1777 241.864 25.0561C241.979 25.7538 242.263 26.4054 242.363 27.1031C242.416 27.7383 242.416 28.3769 242.363 29.0121C242.31 30.6192 242.592 32.2197 243.191 33.7119C243.29 33.9649 243.451 34.2562 243.727 34.2792C244.003 34.3022 244.287 33.6352 244.532 33.9342Z" fill="#404040"/>
<path d="M246.733 50.7705C246.94 51.6977 247.259 52.5963 247.683 53.4463C248.773 55.2945 250.489 56.6901 252.521 57.3793C254.541 58.051 256.656 58.3902 258.785 58.3837C261.641 58.4607 264.499 58.2914 267.326 57.8777C268.338 57.732 268.261 57.5097 269.074 56.904C270.385 55.9226 271.887 54.1746 272.14 52.5569C272.953 47.7498 274.31 41.0567 274.111 36.1806C272.807 38.588 272.823 43.7401 270.929 45.7181C269.902 46.7838 268.368 47.1518 266.912 47.3895C262.225 48.1656 257.438 48.1007 252.774 47.1978C251.363 47.0379 250.03 46.4675 248.941 45.5571C247.285 43.9241 247.407 41.2944 247.047 38.9944C246.901 37.9823 246.51 36.472 245.399 36.1346C245.061 38.151 245.521 40.359 245.567 42.3907C245.636 45.2193 246.027 48.0307 246.733 50.7705Z" fill="#404040"/>
<path d="M242.991 37.2387C242.995 37.0085 242.966 36.7789 242.907 36.5564C242.876 36.4456 242.811 36.3472 242.722 36.2745C242.633 36.2018 242.524 36.1583 242.409 36.15C242.163 36.15 241.987 36.38 241.872 36.5947C241.46 37.504 241.419 38.5382 241.757 39.4774C242.008 40.4355 242.6 41.2694 243.421 41.8234C243.621 41.973 243.86 42.0631 244.11 42.0835C244.359 42.1038 244.609 42.0535 244.831 41.9385C245.598 41.4094 245.299 39.8608 244.609 39.4314C244.187 39.1707 243.842 39.2014 243.513 38.7414C243.197 38.3015 243.016 37.7795 242.991 37.2387Z" fill="url(#paint3_linear_13_130)"/>
<path d="M277.093 37.2387C277.09 37.0085 277.118 36.7789 277.177 36.5564C277.209 36.4456 277.273 36.3472 277.362 36.2745C277.452 36.2018 277.561 36.1583 277.676 36.15C277.921 36.15 278.097 36.38 278.212 36.5947C278.625 37.504 278.666 38.5382 278.327 39.4774C278.076 40.4355 277.485 41.2694 276.664 41.8234C276.463 41.973 276.224 42.0631 275.975 42.0835C275.725 42.1038 275.475 42.0535 275.253 41.9385C274.486 41.4094 274.793 39.8608 275.475 39.4314C275.897 39.1707 276.242 39.2014 276.572 38.7414C276.887 38.3015 277.068 37.7795 277.093 37.2387Z" fill="url(#paint4_linear_13_130)"/>
<path d="M268.537 60.4384C267.769 60.0906 266.923 59.953 266.084 60.0397C260.909 60.1777 255.557 61.2511 250.689 59.4954C249.854 60.3057 249.242 61.3168 248.91 62.4317C248.412 64.7854 250.398 66.9705 252.544 68.0438C256.171 69.8685 260.418 69.8302 264.466 69.5772C266.053 69.4852 267.771 69.3242 268.951 68.2508C270.83 66.5795 270.929 61.7801 268.537 60.4384Z" fill="#2673D1"/>
<path d="M248.811 64.1797C248.811 64.1797 247.139 68.1741 255.473 68.3428C255.473 68.3428 247.139 68.5114 244.808 70.3438C242.478 72.1761 236.643 75.0052 236.314 78.6776C235.984 82.35 233.975 92.1711 233.975 92.1711L227.344 94.7165L231.484 75.5495C233.446 72.575 235.995 70.0323 238.974 68.0773C241.954 66.1222 245.301 64.7959 248.811 64.1797Z" fill="url(#paint5_linear_13_130)"/>
<defs>
<linearGradient id="paint0_linear_13_130" x1="45.096" y1="66.3725" x2="39.3843" y2="43.3414" gradientUnits="userSpaceOnUse">
<stop stop-opacity="0"/>
<stop offset="0.99"/>
</linearGradient>
<linearGradient id="paint1_linear_13_130" x1="7986.56" y1="2096.52" x2="8090.62" y2="1812.13" gradientUnits="userSpaceOnUse">
<stop stop-opacity="0"/>
<stop offset="0.99"/>
</linearGradient>
<linearGradient id="paint2_linear_13_130" x1="4770.72" y1="2084.61" x2="4801.13" y2="1460.97" gradientUnits="userSpaceOnUse">
<stop stop-opacity="0"/>
<stop offset="0.99"/>
</linearGradient>
<linearGradient id="paint3_linear_13_130" x1="1461.56" y1="1029.02" x2="1499.57" y2="1025.53" gradientUnits="userSpaceOnUse">
<stop stop-opacity="0"/>
<stop offset="0.99"/>
</linearGradient>
<linearGradient id="paint4_linear_13_130" x1="3776.16" y1="1029.02" x2="3738.18" y2="1025.54" gradientUnits="userSpaceOnUse">
<stop stop-opacity="0"/>
<stop offset="0.99"/>
</linearGradient>
<linearGradient id="paint5_linear_13_130" x1="9575.04" y1="7469.36" x2="8437.82" y2="3855.86" gradientUnits="userSpaceOnUse">
<stop stop-opacity="0"/>
<stop offset="0.99"/>
</linearGradient>
</defs>
</svg>
