<svg width="329" height="177" viewBox="0 0 329 177" fill="none" xmlns="http://www.w3.org/2000/svg">
<path opacity="0.3" d="M164.46 176.26C255.289 176.26 328.92 170.484 328.92 163.359C328.92 156.234 255.289 150.458 164.46 150.458C73.6313 150.458 0 156.234 0 163.359C0 170.484 73.6313 176.26 164.46 176.26Z" fill="#E6E6E6"/>
<path d="M34.6873 86.0968C34.6873 86.0968 17.8316 94.2297 15.6357 112.844C13.4398 131.458 7.20784 167.477 53.0171 165.392C98.8264 163.308 120.43 160.787 109.623 125.745C98.8162 90.702 34.6873 86.0968 34.6873 86.0968Z" fill="#F5802F"/>
<path opacity="0.09" d="M32.989 95.8054C32.5179 98.4363 32.8475 101.148 33.935 103.589C35.0225 106.031 36.8179 108.09 39.0888 109.499C45.3004 113.566 54.8669 128.144 62.2883 135.514C63.453 136.658 64.3741 138.026 64.9961 139.536C65.6181 141.045 65.9281 142.665 65.9075 144.298C65.9289 145.133 66.1472 145.951 66.5447 146.686C66.9422 147.421 67.5076 148.052 68.1949 148.527C73.3492 152.736 94.9729 154.85 107.071 141.888C119.169 128.927 103.218 122.512 103.218 122.512L50.0684 93.7417L32.989 95.8054Z" fill="black"/>
<path d="M150.481 159.293C150.842 160.13 151.383 160.878 152.067 161.481C152.751 162.084 153.56 162.527 154.436 162.78C157.262 163.42 158.797 166.897 152.616 166.328C146.435 165.758 143.05 166.734 143.934 163.339C144.819 159.943 144.422 159.435 144.422 159.435L150.481 159.293Z" fill="#F4A28C"/>
<path d="M108.983 156.863C108.867 157.768 108.955 158.686 109.238 159.553C109.521 160.42 109.993 161.213 110.619 161.875C112.724 163.908 112.276 167.649 107.244 164.01C102.212 160.37 98.7961 159.486 101.287 157.026C103.777 154.566 103.696 153.905 103.696 153.905L108.983 156.863Z" fill="#F4A28C"/>
<path d="M114.351 113.942C114.351 113.942 152.139 114.328 151.773 159.394L142.857 160.899C142.857 160.899 141.149 113.322 92.0255 135.982L94.5874 117.235L114.351 113.942Z" fill="#24285B"/>
<path opacity="0.09" d="M114.351 113.942C114.351 113.942 152.139 114.328 151.773 159.394L142.857 160.899C142.857 160.899 141.149 113.322 92.0255 135.982L94.5874 117.235L114.351 113.942Z" fill="black"/>
<path d="M117.35 72.4335L120.623 73.3078L118.295 70.7968L117.35 72.4335Z" fill="#FFD200"/>
<path d="M65.8473 94.738C65.8473 94.738 72.3739 111.227 88.3144 108.34C104.255 105.453 110.304 71.9964 110.304 71.9964C110.304 71.9964 116.617 67.9299 113.557 63.3247C110.497 58.7194 105.546 68.6416 105.546 68.6416C105.546 68.6416 98.6838 96.8118 83.821 87.6827L65.8473 94.738Z" fill="#F4A28C"/>
<path opacity="0.09" d="M65.8473 94.738C65.8473 94.738 72.3739 111.227 88.3144 108.34C104.255 105.453 110.304 71.9964 110.304 71.9964C110.304 71.9964 116.617 67.9299 113.557 63.3247C110.497 58.7194 105.546 68.6416 105.546 68.6416C105.546 68.6416 98.6838 96.8118 83.821 87.6827L65.8473 94.738Z" fill="black"/>
<path d="M65.9986 61.2101L69.4551 61.9319C69.4551 61.9319 96.0699 76.3779 91.119 90.8545C86.1681 105.331 96.9849 119.076 96.9849 119.076L73.8367 135.341C73.8367 135.341 43.5925 120.316 48.1164 79.0008C48.1164 79.0415 50.2208 59.7767 65.9986 61.2101Z" fill="#2673D1"/>
<path d="M127.186 69.3748L122.824 67.2778L104.903 104.549L109.264 106.646L127.186 69.3748Z" fill="#E6E6E6"/>
<path d="M64.7391 43.0535L59.9508 59.9495L69.4561 61.9218L69.1206 48.838L64.7391 43.0535Z" fill="#F4A28C"/>
<path opacity="0.31" d="M69.3137 51.7048C68.1544 51.2558 67.1511 50.4786 66.4266 49.4683C66.4266 49.4683 66.1826 52.6808 69.3137 56.2491V51.7048Z" fill="#CE8172"/>
<path d="M74.5796 43.5517C74.2935 46.5203 73.6096 49.4369 72.5464 52.2233C72.4015 52.5468 72.1939 52.8383 71.9357 53.0811C71.6774 53.3239 71.3737 53.5132 71.0419 53.638C70.7102 53.7627 70.357 53.8205 70.0027 53.8081C69.6485 53.7956 69.3003 53.7131 68.9781 53.5653C67.9081 53.1535 66.9799 52.4411 66.3054 51.5141C65.6308 50.587 65.2386 49.4847 65.176 48.3399L64.4237 43.45C64.3716 42.4561 64.6304 41.4707 65.1643 40.6308C65.6981 39.7909 66.4804 39.1382 67.4024 38.7634C70.808 37.147 74.9964 40.3493 74.5796 43.5517Z" fill="#F4A28C"/>
<path d="M68.175 47.0691C68.175 47.0691 68.4902 45.0358 66.9348 44.9138C65.3794 44.7918 64.9016 47.74 66.9348 48.3907L68.175 47.0691Z" fill="#F4A28C"/>
<path d="M74.1121 46.8962L75.2202 49.1938C75.2839 49.3236 75.3136 49.4676 75.3065 49.6121C75.2993 49.7566 75.2556 49.8969 75.1794 50.0198C75.1032 50.1428 74.997 50.2444 74.8707 50.315C74.7445 50.3857 74.6024 50.4232 74.4577 50.4239H72.3635L74.1121 46.8962Z" fill="#F4A28C"/>
<path d="M118.922 71.318L102.453 61.8535L101.508 63.4986L117.976 72.9631L118.922 71.318Z" fill="#24285B"/>
<path opacity="0.18" d="M79.1431 126.395L73.8364 135.382C73.8364 135.382 54.5818 126.07 49.0616 100.817C43.5414 75.5647 61.7794 85.3953 61.7794 85.3953L79.1431 126.395Z" fill="black"/>
<path d="M73.8376 135.382C73.8376 135.382 91.6792 99.0077 118.06 99.1501C144.441 99.2924 110.171 157.829 110.171 157.829L101.428 154.291C101.428 154.291 114.38 129.171 111.066 121.089C107.752 113.006 102.781 168.788 73.8376 135.382Z" fill="#24285B"/>
<path d="M58.567 63.2536C58.567 63.2536 66.5068 59.1871 70.5428 67.4014C74.5789 75.6156 71.3968 110.77 87.7645 112.6C104.132 114.43 112.438 97.3507 112.438 97.3507C112.438 97.3507 113.79 90.1531 116.047 88.984C118.304 87.8149 120.266 95.3378 116.047 99.7296C116.047 99.7296 108.829 126.853 85.9346 127.463C63.0401 128.073 35.9775 81.8169 58.567 63.2536Z" fill="#F4A28C"/>
<path d="M74.619 36.6183C74.619 36.6183 79.8342 42.7179 73.0738 44.0395C66.3133 45.3611 64.9409 46.5404 65.5813 53.3822C66.2218 60.224 68.8955 66.5168 59.9493 70.8476C51.0031 75.1783 58.7294 82.2438 57.0418 90.6715C55.3542 99.0992 47.5162 104.904 37.4416 99.15C27.3669 93.396 21.1758 78.767 31.9417 69.9733C42.7076 61.1796 56.3404 59.065 56.3404 44.9138C56.3404 30.7626 67.6349 30.0306 74.619 36.6183Z" fill="#24285B"/>
<path d="M117.77 99.3296L111.083 96.78L109.645 100.551L116.333 103.101L117.77 99.3296Z" fill="#2673D1"/>
<path opacity="0.44" d="M117.77 99.3296L111.083 96.78L109.645 100.551L116.333 103.101L117.77 99.3296Z" fill="white"/>
<path d="M287.411 83.5959C287.411 83.5959 321.163 89.2991 319.598 112.844C318.357 131.57 328.025 167.477 282.226 165.423C236.427 163.369 214.814 160.818 225.61 125.775C236.407 90.7326 287.411 83.5959 287.411 83.5959Z" fill="#F5802F"/>
<path opacity="0.09" d="M302.244 95.8055C302.715 98.4363 302.385 101.148 301.298 103.589C300.21 106.031 298.415 108.09 296.144 109.499C289.932 113.566 280.376 128.144 272.945 135.514C271.782 136.66 270.862 138.028 270.24 139.537C269.618 141.047 269.307 142.666 269.325 144.298C269.304 145.133 269.086 145.951 268.688 146.686C268.291 147.421 267.725 148.052 267.038 148.527C261.884 152.736 240.26 154.85 228.172 141.888C216.085 128.927 232.015 122.512 232.015 122.512L284.422 86.229C282.613 85.2734 300.099 88.7299 302.244 95.8055Z" fill="black"/>
<path d="M184.792 159.293C184.431 160.131 183.888 160.879 183.203 161.482C182.517 162.086 181.706 162.529 180.828 162.78C178.002 163.42 176.466 166.897 182.647 166.328C188.828 165.758 192.224 166.734 191.329 163.339C190.435 159.943 190.851 159.435 190.851 159.435L184.792 159.293Z" fill="#F4A28C"/>
<path d="M214.346 160.899C214.144 161.79 213.746 162.626 213.182 163.345C212.617 164.064 211.9 164.649 211.082 165.057C208.429 166.206 207.544 169.896 213.522 168.219C219.5 166.541 223.007 166.866 221.513 163.695C220.018 160.523 220.323 159.943 220.323 159.943L214.346 160.899Z" fill="#F4A28C"/>
<path d="M220.883 113.942C220.883 113.942 183.094 114.328 183.46 159.394L192.386 160.899C192.386 160.899 194.094 113.322 243.218 135.982L240.656 117.235L220.883 113.942Z" fill="#24285B"/>
<path opacity="0.09" d="M220.883 113.942C220.883 113.942 183.094 114.328 183.46 159.394L192.386 160.899C192.386 160.899 194.094 113.322 243.218 135.982L240.656 117.235L220.883 113.942Z" fill="black"/>
<path d="M222.245 72.7791C222.245 72.7791 208.775 79.6921 204.159 76.5304C199.544 73.3688 198.232 55.7712 198.232 55.7712L191.909 57.1742C191.909 57.1742 189.479 91.9423 200.184 95.5512C210.889 99.1602 229.524 89.9294 229.524 89.9294L222.245 72.7791Z" fill="#F4A28C"/>
<path d="M259.057 72.7589C254.614 81.5831 244.885 93.4063 224.248 95.592L219.826 73.4197C219.826 73.4197 235.522 63.4976 252.144 62.237C253.421 62.1539 254.697 62.4107 255.842 62.9813C256.987 63.552 257.961 64.416 258.663 65.4854C259.366 66.5548 259.773 67.7914 259.842 69.0691C259.911 70.3468 259.64 71.62 259.057 72.7589Z" fill="#2673D1"/>
<path opacity="0.46" d="M259.057 72.7589C254.614 81.5831 244.885 93.4063 224.248 95.592L219.826 73.4197C219.826 73.4197 235.522 63.4976 252.144 62.237C253.421 62.1539 254.697 62.4107 255.842 62.9813C256.987 63.552 257.961 64.416 258.663 65.4854C259.366 66.5548 259.773 67.7914 259.842 69.0691C259.911 70.3468 259.64 71.62 259.057 72.7589Z" fill="white"/>
<path d="M197.917 55.8424C198.232 55.7713 198.547 49.0515 197.734 49.6716C197.185 50.1736 196.799 50.8287 196.626 51.5523C196.626 51.5523 196.626 46.7946 194.176 47.3232C191.726 47.8519 190.892 53.3314 191.858 57.1742L197.876 56.0661" fill="#F4A28C"/>
<path d="M255.428 42.0572C255.091 44.54 255.091 47.0568 255.428 49.5395C255.485 49.8314 255.599 50.1091 255.764 50.3565C255.93 50.6039 256.142 50.816 256.39 50.9805C256.638 51.1451 256.916 51.2588 257.208 51.3151C257.5 51.3714 257.8 51.3691 258.091 51.3084C259.037 51.1709 259.923 50.7643 260.644 50.137C261.365 49.5097 261.891 48.6882 262.158 47.7706L263.703 43.9176C263.931 43.1126 263.904 42.2569 263.628 41.4674C263.351 40.6778 262.838 39.9927 262.158 39.5056C259.728 37.5537 255.672 39.3327 255.428 42.0572Z" fill="#F4A28C"/>
<path d="M263.439 44.6089L264.974 59.2786L256.831 59.5531L258.986 48.7668L263.439 44.6089Z" fill="#F4A28C"/>
<path d="M256.536 42.3114C257.921 42.4382 259.317 42.4041 260.694 42.2098C260.272 42.7951 260.026 43.4894 259.986 44.2102C259.947 44.931 260.115 45.6481 260.47 46.2762C260.816 46.898 261.367 47.3795 262.03 47.6375C262.693 47.8956 263.425 47.9139 264.1 47.6893L264.334 41.9048C264.395 41.0801 264.232 40.2542 263.861 39.5148C263.491 38.7755 262.927 38.1505 262.229 37.7062C261.626 37.3257 260.997 36.9861 260.348 36.6896C258.722 35.9373 256.231 36.9132 254.798 35.673C254.653 35.5534 254.48 35.4732 254.295 35.4404C254.11 35.4075 253.92 35.4231 253.743 35.4855C253.566 35.5479 253.408 35.6551 253.285 35.7966C253.161 35.9382 253.077 36.1092 253.039 36.2931C252.693 38.0315 252.856 40.8069 255.184 41.8946C255.608 42.1098 256.065 42.2508 256.536 42.3114Z" fill="#DD6034"/>
<path d="M260.023 46.1643C260.023 46.1643 260.145 44.4361 261.436 44.6394C262.727 44.8428 262.564 47.3436 260.785 47.4758L260.023 46.1643Z" fill="#F4A28C"/>
<path d="M255.184 44.8936L253.832 46.5506C253.757 46.6465 253.707 46.7595 253.687 46.8794C253.667 46.9993 253.677 47.1223 253.717 47.2373C253.756 47.3523 253.823 47.4557 253.913 47.5381C254.002 47.6206 254.11 47.6795 254.228 47.7096L255.926 48.1264L255.184 44.8936Z" fill="#F4A28C"/>
<path opacity="0.31" d="M258.407 51.105C259.431 50.9056 260.374 50.4109 261.121 49.6818C260.701 51.773 259.502 53.6264 257.766 54.8665L258.407 51.105Z" fill="#CE8172"/>
<path d="M282.602 73.7451C280.94 69.321 277.926 65.5341 273.986 62.9238C270.047 60.3135 265.385 59.013 260.663 59.2075L257.054 59.3295C257.054 59.3295 231.69 59.2177 229.768 82.3151C227.847 105.412 238.287 123.711 238.287 123.711L272.374 124.952C272.374 124.952 289.962 94.1179 282.602 73.7451Z" fill="#2673D1"/>
<path opacity="0.08" d="M265.432 71.2034C265.432 71.2034 260.572 88.3434 262.382 104.955C264.191 121.566 259.434 124.484 259.434 124.484L272.406 124.952C272.406 124.952 276.258 118.283 277.306 114.785C278.353 111.288 283.954 71.8642 265.432 71.2034Z" fill="black"/>
<path d="M277.143 65.0021C284.992 71.0001 294.812 82.7521 293.124 103.44L270.515 103.674C270.515 103.674 263.683 86.3916 265.564 69.8514C265.723 68.5879 266.211 67.3885 266.982 66.3743C267.752 65.3602 268.776 64.5672 269.95 64.0753C271.125 63.5834 272.408 63.41 273.671 63.5728C274.934 63.7355 276.132 64.2286 277.143 65.0021V65.0021Z" fill="#2673D1"/>
<path opacity="0.46" d="M277.143 65.0021C284.992 71.0001 294.812 82.7521 293.124 103.44L270.515 103.674C270.515 103.674 263.683 86.3916 265.564 69.8514C265.723 68.5879 266.211 67.3885 266.982 66.3743C267.752 65.3602 268.776 64.5672 269.95 64.0753C271.125 63.5834 272.408 63.41 273.671 63.5728C274.934 63.7355 276.132 64.2286 277.143 65.0021V65.0021Z" fill="white"/>
<path d="M290.989 103.46C290.989 103.46 291.569 134.071 282.745 151.678L277.926 150.957C277.926 150.957 281.911 121.658 273.941 103.643L290.989 103.46Z" fill="#F4A28C"/>
<path d="M282.744 151.678C282.744 151.678 280.66 161.743 275.262 158.073C269.864 154.403 277.926 150.957 277.926 150.957L282.744 151.678Z" fill="#F4A28C"/>
<path d="M272.379 125.666C272.379 125.666 243.913 98.8582 217.542 99.0006C191.17 99.1429 211.442 164.419 211.442 164.419L220.154 160.882C220.154 160.882 221.171 129.021 224.465 120.939C227.759 112.857 240.894 166.199 272.379 125.666Z" fill="#24285B"/>
<path d="M230.358 18.3295H189.53V25.8931H178.906V0H113.964V39.1802H178.906V27.8145H189.53V42.9518H221.249L227.348 52.2741V42.9518H230.358V18.3295Z" fill="#CEE0F6"/>
<path opacity="0.09" d="M201.801 33.5887C203.171 33.5887 204.281 32.4782 204.281 31.1082C204.281 29.7383 203.171 28.6277 201.801 28.6277C200.431 28.6277 199.32 29.7383 199.32 31.1082C199.32 32.4782 200.431 33.5887 201.801 33.5887Z" fill="black"/>
<path opacity="0.09" d="M209.944 33.5887C211.314 33.5887 212.424 32.4782 212.424 31.1082C212.424 29.7383 211.314 28.6277 209.944 28.6277C208.574 28.6277 207.463 29.7383 207.463 31.1082C207.463 32.4782 208.574 33.5887 209.944 33.5887Z" fill="black"/>
<path opacity="0.09" d="M218.087 33.5887C219.457 33.5887 220.568 32.4782 220.568 31.1082C220.568 29.7383 219.457 28.6277 218.087 28.6277C216.717 28.6277 215.607 29.7383 215.607 31.1082C215.607 32.4782 216.717 33.5887 218.087 33.5887Z" fill="black"/>
<path opacity="0.09" d="M134.155 21.1455C135.974 21.1455 137.448 19.6708 137.448 17.8517C137.448 16.0326 135.974 14.5579 134.155 14.5579C132.335 14.5579 130.861 16.0326 130.861 17.8517C130.861 19.6708 132.335 21.1455 134.155 21.1455Z" fill="black"/>
<path opacity="0.09" d="M144.951 21.1455C146.77 21.1455 148.245 19.6708 148.245 17.8517C148.245 16.0326 146.77 14.5579 144.951 14.5579C143.132 14.5579 141.657 16.0326 141.657 17.8517C141.657 19.6708 143.132 21.1455 144.951 21.1455Z" fill="black"/>
<path opacity="0.09" d="M155.748 21.1455C157.567 21.1455 159.041 19.6708 159.041 17.8517C159.041 16.0326 157.567 14.5579 155.748 14.5579C153.929 14.5579 152.454 16.0326 152.454 17.8517C152.454 19.6708 153.929 21.1455 155.748 21.1455Z" fill="black"/>
</svg>
